<?xml version="1.0" standalone="no"?>
<!DOCTYPE svg PUBLIC "-//W3C//DTD SVG 20010904//EN"
 "http://www.w3.org/TR/2001/REC-SVG-20010904/DTD/svg10.dtd">
<svg version="1.0" xmlns="http://www.w3.org/2000/svg"
 width="2000.000000pt" height="2000.000000pt" viewBox="0 0 2000.000000 2000.000000"
 preserveAspectRatio="xMidYMid meet">

<g transform="translate(0.000000,2000.000000) scale(0.100000,-0.100000)"
fill="#000000" stroke="none">
<path d="M0 10000 l0 -10000 10000 0 10000 0 0 4734 c0 2851 -4 4737 -9 4740
-5 4 -11 1 -13 -5 -2 -7 -657 -4 -2248 11 l-2244 20 -191 109 c-881 500 -1811
886 -2835 1175 -1433 405 -2977 595 -4500 556 -1142 -29 -2001 -145 -3090
-415 -519 -129 -620 -162 -746 -240 -211 -132 -326 -331 -355 -617 -15 -158 5
-295 66 -440 7 -17 -13 -18 -331 -18 -187 0 -994 7 -1794 15 -800 8 -1510 15
-1577 15 l-123 0 0 323 c0 618 42 1134 140 1714 496 2936 2290 5505 4887 6996
1288 740 2669 1165 4198 1293 262 21 991 30 1278 15 1323 -71 2552 -377 3737
-931 258 -120 636 -321 854 -453 33 -20 63 -34 68 -31 4 3 8 1 8 -4 0 -11 209
-145 228 -145 6 0 10 -3 7 -5 -6 -7 227 -158 238 -154 5 1 6 -1 4 -6 -7 -9
114 -88 128 -84 5 2 7 0 3 -4 -10 -9 94 -84 107 -76 6 3 7 2 3 -2 -4 -5 50
-51 120 -104 175 -132 399 -313 556 -451 72 -63 124 -106 116 -95 -8 10 18
-15 59 -56 40 -41 65 -64 55 -50 -11 13 45 -42 124 -122 79 -81 209 -211 290
-290 80 -79 133 -132 116 -119 -16 14 -1 -4 34 -38 34 -35 62 -67 62 -71 0 -5
26 -32 58 -61 31 -29 48 -46 37 -38 -26 18 55 -75 104 -119 20 -19 29 -31 21
-27 -8 3 3 -10 25 -31 22 -20 33 -34 25 -30 -8 4 3 -9 25 -30 22 -20 33 -34
25 -30 -8 4 1 -7 20 -25 19 -17 28 -28 20 -24 -18 10 21 -38 64 -79 17 -16 24
-25 16 -22 -8 4 -4 -2 10 -14 14 -12 25 -27 25 -32 0 -5 9 -16 19 -24 11 -8
16 -14 10 -14 -5 -1 5 -12 21 -26 17 -15 23 -23 15 -18 -18 9 12 -30 50 -65
14 -13 18 -20 10 -16 -8 3 -1 -6 15 -20 17 -15 23 -24 15 -20 -8 3 -4 -3 9
-14 13 -12 19 -21 15 -21 -5 0 2 -10 16 -21 14 -11 18 -18 10 -14 -8 3 -1 -6
15 -20 17 -15 23 -24 15 -20 -8 3 -4 -3 9 -14 13 -12 19 -21 15 -21 -5 0 2
-10 16 -21 14 -11 18 -18 10 -14 -8 4 -4 -3 10 -15 14 -12 18 -19 10 -15 -8 4
-4 -3 9 -14 13 -12 19 -21 15 -21 -5 0 0 -7 10 -15 11 -8 16 -15 10 -15 -5 0
2 -10 16 -21 14 -11 18 -18 10 -14 -8 4 -4 -3 10 -15 14 -12 18 -19 10 -15 -8
4 -4 -3 10 -15 14 -12 18 -19 10 -15 -8 4 -4 -3 10 -15 14 -12 18 -19 10 -15
-10 4 -9 2 2 -8 10 -8 15 -17 11 -20 -3 -4 2 -9 11 -13 9 -3 13 -10 10 -15 -3
-5 2 -12 10 -15 9 -3 13 -10 10 -15 -3 -5 2 -12 10 -15 9 -3 13 -10 10 -15 -3
-5 2 -12 10 -15 9 -3 13 -10 11 -15 -3 -4 3 -17 15 -29 11 -11 17 -20 13 -20
-5 0 1 -7 11 -15 11 -8 16 -15 11 -15 -5 0 0 -7 11 -16 10 -8 12 -13 4 -9 -8
4 -6 -1 4 -9 11 -9 16 -16 10 -16 -5 0 0 -7 10 -15 11 -8 16 -15 11 -15 -5 0
0 -7 11 -16 10 -8 12 -13 4 -9 -13 6 -13 5 0 -7 8 -7 16 -20 18 -28 2 -8 10
-21 19 -27 9 -7 13 -13 8 -13 -5 0 0 -7 11 -16 10 -8 12 -13 4 -9 -10 4 -9 2
2 -8 10 -8 15 -17 11 -20 -3 -4 -1 -7 6 -7 7 0 9 -5 6 -10 -3 -6 1 -13 9 -16
9 -3 13 -10 10 -15 -3 -5 0 -9 6 -9 6 0 9 -4 5 -10 -3 -5 3 -18 14 -29 11 -11
17 -22 14 -25 -4 -3 -1 -6 6 -6 7 0 9 -4 6 -10 -3 -5 -1 -10 5 -10 6 0 8 -5 5
-10 -3 -6 1 -13 9 -16 9 -3 13 -10 10 -15 -3 -5 0 -9 6 -9 6 0 8 -4 5 -10 -3
-5 -1 -10 5 -10 6 0 9 -4 5 -10 -3 -5 3 -18 14 -29 11 -11 17 -22 14 -25 -4
-3 -1 -6 6 -6 7 0 9 -4 6 -10 -3 -5 -1 -10 5 -10 6 0 8 -4 5 -10 -3 -5 -1 -10
6 -10 7 0 10 -3 6 -6 -8 -9 21 -64 34 -64 6 0 7 -4 4 -10 -3 -5 -1 -10 5 -10
6 0 8 -4 5 -10 -3 -5 -1 -10 5 -10 6 0 8 -4 5 -10 -3 -5 -1 -10 5 -10 6 0 8
-4 5 -10 -3 -5 -1 -10 5 -10 6 0 8 -4 5 -10 -3 -5 -1 -10 5 -10 6 0 8 -4 5
-10 -3 -5 -1 -10 5 -10 6 0 8 -4 5 -10 -3 -5 -1 -10 5 -10 6 0 8 -4 5 -10 -3
-5 -1 -10 5 -10 6 0 8 -4 5 -10 -3 -5 -1 -10 5 -10 6 0 8 -4 5 -10 -3 -5 -1
-10 5 -10 6 0 8 -4 5 -10 -3 -5 -1 -10 5 -10 6 0 8 -4 5 -10 -3 -5 -1 -10 5
-10 6 0 8 -4 5 -10 -3 -5 -1 -10 5 -10 6 0 8 -4 5 -10 -3 -5 -1 -10 5 -10 6 0
8 -4 5 -10 -3 -5 -1 -10 5 -10 6 0 8 -4 5 -10 -3 -5 -1 -10 5 -10 6 0 8 -4 5
-10 -3 -5 -1 -10 5 -10 6 0 8 -4 5 -10 -3 -5 -1 -10 5 -10 6 0 8 -5 5 -10 -3
-5 -1 -10 5 -10 6 0 8 -4 5 -10 -3 -5 -1 -10 5 -10 6 0 8 -4 5 -10 -3 -5 -2
-10 4 -10 6 0 7 -7 4 -17 -5 -12 -3 -14 7 -8 10 6 12 4 7 -8 -3 -10 -2 -17 4
-17 6 0 7 -4 4 -10 -3 -5 -1 -10 5 -10 6 0 8 -4 5 -10 -3 -5 -1 -10 5 -10 6 0
8 -4 5 -10 -3 -5 -1 -10 5 -10 6 0 8 -4 5 -10 -3 -5 -2 -10 4 -10 6 0 8 -7 5
-15 -4 -8 -1 -15 6 -15 6 0 8 -4 5 -10 -3 -6 -1 -10 5 -10 6 0 8 -4 5 -10 -3
-5 -1 -10 5 -10 6 0 8 -4 5 -10 -3 -5 -2 -10 4 -10 6 0 8 -7 5 -15 -4 -8 -1
-15 6 -15 6 0 8 -5 5 -10 -3 -6 -1 -10 5 -10 6 0 8 -4 5 -10 -3 -5 -2 -10 4
-10 6 0 8 -7 5 -15 -4 -8 -1 -15 6 -15 6 0 8 -4 5 -10 -3 -5 -1 -10 5 -10 6 0
8 -4 5 -10 -3 -5 -2 -10 4 -10 6 0 8 -7 5 -15 -4 -8 -1 -15 6 -15 6 0 8 -4 5
-10 -3 -5 -2 -10 4 -10 6 0 7 -7 4 -17 -4 -11 -3 -14 5 -9 8 5 10 2 6 -8 -3
-9 -1 -16 6 -16 6 0 8 -4 5 -10 -3 -5 -2 -10 4 -10 6 0 8 -7 5 -15 -4 -8 -1
-15 6 -15 6 0 8 -4 5 -10 -3 -5 -2 -10 4 -10 6 0 8 -7 5 -15 -4 -8 -1 -15 6
-15 6 0 8 -4 5 -10 -3 -5 -2 -10 4 -10 6 0 8 -7 5 -15 -4 -8 -1 -15 5 -15 6 0
8 -7 4 -17 -5 -12 -3 -14 7 -8 10 6 12 4 7 -8 -3 -10 -2 -17 3 -17 5 0 7 -7 4
-15 -4 -8 -1 -15 6 -15 6 0 8 -4 5 -10 -3 -5 -2 -10 4 -10 6 0 8 -7 5 -15 -4
-8 -1 -15 5 -15 6 0 8 -7 5 -15 -4 -8 -1 -15 6 -15 6 0 8 -4 5 -10 -3 -5 -2
-10 4 -10 6 0 8 -7 5 -15 -4 -8 -1 -15 5 -15 6 0 8 -7 5 -15 -4 -8 -1 -15 5
-15 6 0 8 -7 5 -15 -4 -8 -1 -15 6 -15 6 0 8 -4 5 -10 -3 -5 -1 -10 5 -10 7 0
10 -7 6 -15 -3 -8 -1 -15 5 -15 6 0 9 -7 5 -15 -3 -8 -1 -15 4 -15 5 0 7 -7 4
-15 -4 -8 -1 -15 5 -15 6 0 8 -7 5 -15 -4 -8 -1 -15 5 -15 6 0 8 -7 5 -15 -4
-8 -1 -15 5 -15 6 0 8 -7 5 -15 -4 -8 -1 -15 5 -15 6 0 8 -7 5 -15 -4 -8 -1
-15 5 -15 6 0 8 -7 5 -15 -4 -8 -1 -15 5 -15 6 0 8 -7 5 -15 -4 -8 -1 -15 5
-15 6 0 8 -7 5 -15 -4 -8 -1 -15 5 -15 6 0 8 -6 5 -14 -3 -8 0 -17 5 -21 6 -3
9 -11 6 -16 -4 -5 -1 -9 5 -9 7 0 9 -8 5 -20 -4 -11 -2 -20 4 -20 6 0 8 -7 5
-15 -4 -8 -1 -15 5 -15 6 0 8 -7 5 -15 -4 -8 -1 -15 6 -15 7 0 10 -7 6 -15 -3
-8 -1 -15 5 -15 6 0 8 -9 4 -20 -4 -12 -2 -20 5 -20 7 0 10 -7 6 -15 -3 -8 -1
-15 5 -15 6 0 8 -9 4 -20 -4 -11 -2 -20 4 -20 6 0 8 -7 5 -15 -4 -8 -1 -15 6
-15 7 0 9 -8 5 -20 -3 -11 -2 -20 3 -20 6 0 8 -10 4 -22 -4 -15 -2 -19 7 -13
10 5 11 2 6 -14 -4 -13 -2 -21 5 -21 7 0 9 -8 5 -20 -4 -12 -2 -20 5 -20 7 0
9 -8 5 -20 -3 -11 -2 -20 3 -20 6 0 8 -9 5 -20 -3 -11 -1 -20 5 -20 6 0 8 -9
5 -20 -3 -11 -1 -20 5 -20 6 0 8 -9 5 -20 -3 -11 -1 -20 5 -20 6 0 8 -9 5 -20
-3 -11 -1 -20 5 -20 6 0 8 -9 5 -20 -3 -12 0 -20 7 -20 7 0 9 -8 5 -20 -4 -12
-2 -20 5 -20 7 0 9 -8 5 -20 -4 -12 -2 -20 5 -20 6 0 8 -10 4 -25 -4 -16 -2
-25 6 -25 7 0 9 -8 5 -20 -4 -12 -2 -20 5 -20 6 0 8 -10 4 -25 -4 -16 -2 -25
6 -25 7 0 9 -8 5 -19 -3 -11 -1 -22 5 -26 6 -4 8 -15 5 -26 -4 -11 -2 -19 5
-19 8 0 10 -9 6 -25 -4 -16 -2 -25 5 -25 7 0 9 -9 5 -25 -4 -15 -2 -25 5 -25
7 0 8 -11 4 -30 -4 -19 -3 -30 4 -30 7 0 9 -10 5 -25 -4 -15 -2 -25 5 -25 6 0
8 -11 5 -30 -4 -19 -2 -30 5 -30 7 0 9 -9 5 -25 -4 -16 -2 -25 6 -25 8 0 9
-10 5 -30 -4 -20 -3 -30 5 -30 8 0 9 -10 5 -29 -3 -16 -2 -32 4 -35 6 -4 8
-20 4 -36 -3 -20 -1 -30 6 -30 8 0 10 -11 5 -35 -4 -24 -2 -35 5 -35 8 0 10
-11 5 -35 -4 -24 -2 -35 5 -35 8 0 10 -11 5 -35 -4 -24 -3 -35 6 -35 8 0 10
-12 5 -40 -5 -27 -3 -40 5 -40 8 0 9 -14 5 -44 -5 -28 -3 -46 4 -50 7 -5 9
-22 5 -47 -5 -27 -3 -39 6 -39 9 0 10 -14 5 -50 -4 -31 -3 -50 3 -50 6 0 8
-23 5 -59 -3 -35 0 -62 6 -65 7 -5 8 -29 4 -66 -4 -44 -3 -60 6 -60 9 0 11
-20 6 -79 -5 -51 -4 -85 4 -97 7 -14 10 1304 11 4734 l0 4752 -10000 0 -10000
0 0 -10000z m17080 7075 c52 -52 92 -95 90 -95 -3 0 -48 43 -100 95 -52 52
-92 95 -90 95 3 0 48 -43 100 -95z m-7940 -7400 c380 -24 789 -65 1060 -104
l125 -19 -265 -1 c-249 -1 -1328 9 -2840 25 -599 7 -656 9 -570 20 281 38 756
78 1105 94 272 12 1106 4 1385 -15z m10847 -347 c-3 -8 -6 -5 -6 6 -1 11 2 17
5 13 3 -3 4 -12 1 -19z m-40 -460 c-3 -8 -6 -5 -6 6 -1 11 2 17 5 13 3 -3 4
-12 1 -19z"/>
<path d="M7915 14773 c-1342 -44 -2434 -182 -3515 -444 -256 -62 -550 -142
-655 -179 -356 -123 -586 -395 -645 -761 -18 -111 -8 -343 18 -441 87 -323
324 -565 649 -665 80 -25 102 -27 253 -27 159 0 170 1 300 37 605 166 946 242
1445 326 1240 207 2702 268 4095 171 1424 -100 2834 -365 4025 -757 723 -238
1310 -493 1884 -820 324 -185 392 -208 621 -208 131 0 168 4 240 23 405 110
677 439 706 855 12 162 -21 364 -82 510 -60 143 -192 301 -331 395 -151 102
-606 347 -921 496 -1866 884 -4168 1391 -6747 1486 -235 9 -1112 11 -1340 3z"/>
<path d="M19993 10345 c0 -44 2 -61 4 -37 2 23 2 59 0 80 -2 20 -4 1 -4 -43z"/>
<path d="M19994 9655 c0 -49 1 -71 3 -48 2 23 2 64 0 90 -2 26 -3 8 -3 -42z"/>
<path d="M19991 9524 c0 -11 3 -14 6 -6 3 7 2 16 -1 19 -3 4 -6 -2 -5 -13z"/>
</g>
</svg>
